<svg width="114" height="114" viewBox="0 0 114 114" fill="none" xmlns="http://www.w3.org/2000/svg">
<path d="M0.75 100.75H113.25V113.25H0.75V100.75ZM19.5 82C26.375 82 32 76.375 32 69.5C32 66.375 30.75 63.25 28.875 61.375L37 44.5H38.25C41.375 44.5 44.5 43.25 46.375 41.375L63.25 50.125V50.75C63.25 57.625 68.875 63.25 75.75 63.25C82.625 63.25 88.25 57.625 88.25 50.75C88.25 47.625 87 45.125 85.125 42.625L93.25 25.75H94.5C101.375 25.75 107 20.125 107 13.25C107 6.375 101.375 0.75 94.5 0.75C87.625 0.75 82 6.375 82 13.25C82 16.375 83.25 19.5 85.125 21.375L77 38.25H75.75C72.625 38.25 69.5 39.5 67.625 41.375L50.75 33.25V32C50.75 25.125 45.125 19.5 38.25 19.5C31.375 19.5 25.75 25.125 25.75 32C25.75 35.125 27 38.25 28.875 40.125L20.75 57H19.5C12.625 57 7 62.625 7 69.5C7 76.375 12.625 82 19.5 82Z" fill="black"/>
</svg>
